<svg id="Layer_1" data-name="Layer 1" xmlns="http://www.w3.org/2000/svg" viewBox="0 0 4300 3662.02"><defs><style>.cls-1{opacity:0.3;}.cls-2{fill:#d2e4ff;}.cls-3{fill:#060405;}.cls-4{fill:#fff;}.cls-5{fill:#6193f6;}.cls-6{fill:#ff7545;}.cls-7{opacity:0.05;}.cls-8{fill:#b580d8;}.cls-9{fill:#bdd6ff;}.cls-10{fill:#c6e2fa;}</style></defs><g id="Secure_Login" data-name="Secure Login"><g class="cls-1"><path class="cls-2" d="M4647.84,2255.63c-57.78,158.33-36.65,711.9-17.28,1097.83,10.65,211.49-157.91,388.78-369.66,388.78H799c-113.21,0-214.51-73.47-246.63-182.07-.17-.67-.42-1.42-.59-2.09-46.63-161.35-10.82-335.19,38.07-495.87,49.06-161.1,109.94-341.74,32.71-490.84-59.79-115.56-189.86-181.14-244.79-299-69.61-149.61-6.63-1357.38,481.53-1527.11,255.52-88.89,523.46-85.2,767.08,25.58S3353.27,625.88,3820.8,669.65c140.38,13.08,276.15,56.19,409.83,101.81,50.06,17.19,102.73,36.56,135.69,78.58,61,78-40.93,434-71.7,528.66s286.13,497,306.42,558.76C4612.7,1973.27,4660.67,2220.33,4647.84,2255.63Z" transform="translate(-350 -664.55)"/></g><path class="cls-3" d="M4168.18,2173.93h-23.41v-8.39h23.4a79,79,0,0,0,9.61-.61l1,8.32A85.63,85.63,0,0,1,4168.18,2173.93Zm-57,0h-33.56v-8.39h33.56Zm-67.13,0h-33.56v-8.39h33.56Zm-67.12,0H3943.4v-8.39H3977Zm-67.12,0h-33.56v-8.39h33.56Zm-67.12,0h-33.56v-8.39h33.56Zm-67.12,0H3742v-8.39h33.56Zm-67.13,0h-33.56v-8.39h33.56Zm-67.12,0h-33.56v-8.39h33.56Zm-67.12,0h-33.56v-8.39h33.56Zm-67.12,0h-33.56v-8.39h33.56Zm-67.12,0h-33.56v-8.39H3440Zm-67.13,0H3339.3v-8.39h33.56Zm839-12.26-4.37-7.16a76.57,76.57,0,0,0,22.94-21.69l6.91,4.77A85.21,85.21,0,0,1,4211.91,2161.67Zm38.94-56.45-8.25-1.53c1.94-10.5,1-17.05,1.26-32.71h8.39C4252,2086.63,4253,2093.68,4250.85,2105.22Zm1.4-67.8h-8.39v-33.56h8.39Zm0-67.12h-8.39v-33.57h8.39Zm0-67.13h-8.39v-33.56h8.39Zm0-67.12h-8.39v-33.56h8.39Zm0-67.12h-8.39v-33.56h8.39Zm0-67.12h-8.39v-33.56h8.39Z" transform="translate(-350 -664.55)"/><path class="cls-3" d="M3605.42,1071.33V3558.81A183.56,183.56,0,0,1,3422,3742.24H2032.42c-101.39,0-183.51-82.21-183.51-183.43V1071.33c0-101.4,82.2-183.44,183.51-183.44H3422A183.38,183.38,0,0,1,3605.42,1071.33Z" transform="translate(-350 -664.55)"/><path class="cls-4" d="M2032.52,3666.35a107.86,107.86,0,0,1-107.74-107.73V1071.25a107.86,107.86,0,0,1,107.74-107.74H3421.94a107.86,107.86,0,0,1,107.74,107.74V3558.62a107.86,107.86,0,0,1-107.74,107.73Z" transform="translate(-350 -664.55)"/><path class="cls-3" d="M3081.41,946.74l-44.91,107.37a37.05,37.05,0,0,1-34.3,22.8h-550a37.15,37.15,0,0,1-34.3-22.8l-44.82-107.37Z" transform="translate(-350 -664.55)"/><rect class="cls-4" x="2253.19" y="310.51" width="323.13" height="43.73" rx="18.67"/><circle class="cls-4" cx="2197.01" cy="332.38" r="28.99"/><path class="cls-3" d="M2959.74,1739H2479.47V1529.88c0-132.36,107.72-240.05,240.13-240.05s240.14,107.13,240.14,240.05Zm-409.51-70.76H2889V1529.88a169.26,169.26,0,0,0-169.37-169.29c-93.39,0-169.37,76-169.37,169.29Z" transform="translate(-350 -664.55)"/><path class="cls-5" d="M3051.7,1701.16v468.23a65.6,65.6,0,0,1-65.56,65.57H2453.07a65.6,65.6,0,0,1-65.57-65.57V1701.16a65.55,65.55,0,0,1,65.57-65.56h533.07A65.54,65.54,0,0,1,3051.7,1701.16Z" transform="translate(-350 -664.55)"/><path class="cls-3" d="M2775.67,2036.73a20.14,20.14,0,0,1-19.62,24.9h-72.9a20.14,20.14,0,0,1-19.62-24.9l20.31-84.65a76.13,76.13,0,0,1-40-73.9c3-35.55,31.57-64.84,67-68.82a76.07,76.07,0,0,1,44.52,142.72Z" transform="translate(-350 -664.55)"/><rect class="cls-2" x="1828.4" y="1730.92" width="1097.54" height="282.01" rx="41.33"/><rect class="cls-2" x="1828.4" y="2115.93" width="1097.54" height="282.01" rx="41.33"/><rect class="cls-6" x="2038.33" y="2500.94" width="677.67" height="282.01" rx="41.33"/><path class="cls-4" d="M2423,2935.34l-35.57-13.87,36-14.06c6.3-4.06,8.93-11.65,4.75-19.94-5.94-8.9-16-8-19.27-5.27-.57.29-1.75.87-30.24,24,5.67-36.27,5.67-37.39,5.67-38a13.34,13.34,0,0,0-4.4-10,14.67,14.67,0,0,0-20.3,0,13.36,13.36,0,0,0-4.39,10c0,.53,0,1.71,5.67,38-28.51-23.12-29.67-23.7-30.14-23.94-6.31-3.59-14.28-2.45-19.46,5.35-3.37,5.92-2.92,15.41,5.24,20l35.55,13.87-35.74,13.95c-8,4-8.41,13.67-5,19.65,4.85,7.29,13.24,8.7,19.26,5.68.57-.28,1.74-.87,30.25-24-5.67,36.25-5.67,37.43-5.67,37.95,0,8.12,7,14.14,14.55,14.14s14.54-6,14.54-14.14c0-.55,0-1.67-5.67-37.95,28.49,23.13,29.67,23.71,30.24,24,5.86,2.93,14.24,1.87,19.42-5.93C2431.81,2947.73,2430.53,2939.63,2423,2935.34Z" transform="translate(-350 -664.55)"/><path class="cls-4" d="M2601.69,2935.34l-35.56-13.87,36-14.06c6.3-4.06,8.93-11.65,4.76-19.94-5.95-8.9-16-8-19.27-5.27-.58.29-1.76.87-30.25,24,5.67-36.27,5.67-37.39,5.67-38a13.34,13.34,0,0,0-4.4-10,14.67,14.67,0,0,0-20.3,0,13.36,13.36,0,0,0-4.39,10c0,.53,0,1.71,5.67,38-28.51-23.12-29.67-23.7-30.14-23.94-6.3-3.59-14.28-2.45-19.46,5.35-3.37,5.92-2.92,15.41,5.24,20l35.55,13.87L2495,2935.43c-8,4-8.41,13.67-5,19.65,4.85,7.29,13.24,8.7,19.26,5.68.57-.28,1.74-.87,30.25-24-5.67,36.25-5.67,37.43-5.67,37.95,0,8.12,7,14.14,14.55,14.14s14.54-6,14.54-14.14c0-.55,0-1.67-5.67-37.95,28.49,23.13,29.67,23.71,30.25,24,5.85,2.93,14.24,1.87,19.41-5.93C2610.53,2947.73,2609.24,2939.63,2601.69,2935.34Z" transform="translate(-350 -664.55)"/><path class="cls-4" d="M2780.4,2935.34l-35.56-13.87,36-14.06c6.3-4.06,8.93-11.65,4.76-19.94-5.95-8.9-16-8-19.27-5.27-.58.29-1.75.87-30.25,24,5.67-36.27,5.67-37.39,5.67-38a13.34,13.34,0,0,0-4.4-10,14.65,14.65,0,0,0-20.29,0,13.34,13.34,0,0,0-4.4,10c0,.53,0,1.71,5.67,38-28.51-23.12-29.67-23.7-30.13-23.94-6.31-3.59-14.28-2.45-19.46,5.35-3.38,5.92-2.93,15.41,5.23,20l35.56,13.87-35.75,13.95c-8,4-8.41,13.67-5,19.65,4.85,7.29,13.24,8.7,19.26,5.68.57-.28,1.74-.87,30.25-24-5.67,36.25-5.67,37.43-5.67,37.95,0,8.12,7,14.14,14.55,14.14s14.54-6,14.54-14.14c0-.55,0-1.67-5.67-37.95,28.5,23.13,29.67,23.71,30.25,24,5.85,2.93,14.24,1.87,19.41-5.93C2789.24,2947.73,2788,2939.63,2780.4,2935.34Z" transform="translate(-350 -664.55)"/><path class="cls-4" d="M2959.11,2935.34l-35.56-13.87,36-14.06c6.3-4.06,8.93-11.65,4.76-19.94-5.95-8.9-16-8-19.27-5.27-.58.29-1.75.87-30.25,24,5.67-36.27,5.67-37.39,5.67-38a13.34,13.34,0,0,0-4.4-10,14.65,14.65,0,0,0-20.29,0,13.34,13.34,0,0,0-4.4,10c0,.53,0,1.71,5.68,38-28.52-23.12-29.67-23.7-30.14-23.94a13.83,13.83,0,0,0-6.85-1.93c-5.15,0-9.37,2.4-12.61,7.28a15.21,15.21,0,0,0-1.94,7.67,13.21,13.21,0,0,0,7.17,12.34l35.56,13.87-35.75,13.95c-8,4-8.4,13.67-5,19.65,4.85,7.29,13.25,8.7,19.26,5.68.58-.28,1.74-.87,30.26-24-5.68,36.25-5.68,37.43-5.68,37.95,0,8.12,7,14.14,14.55,14.14s14.54-6,14.54-14.14c0-.55,0-1.67-5.67-37.95,28.5,23.13,29.68,23.71,30.25,24,5.85,2.93,14.24,1.87,19.41-5.93C2968,2947.73,2966.67,2939.63,2959.11,2935.34Z" transform="translate(-350 -664.55)"/><path class="cls-4" d="M3137.82,2935.34l-35.56-13.87,36-14.06c6.29-4.06,8.92-11.65,4.75-19.94-5.94-8.9-16-8-19.27-5.27-.58.29-1.75.87-30.25,24,5.67-36.27,5.67-37.39,5.67-38a13.33,13.33,0,0,0-4.39-10,14.67,14.67,0,0,0-20.3,0,13.33,13.33,0,0,0-4.39,10c0,.53,0,1.71,5.67,38-28.52-23.12-29.67-23.7-30.14-23.94-6.31-3.59-14.28-2.45-19.46,5.35-3.38,5.92-2.93,15.41,5.23,20l35.56,13.87-35.74,13.95c-8,4-8.41,13.67-5,19.65,4.85,7.29,13.25,8.7,19.26,5.68.58-.28,1.74-.87,30.26-24-5.67,36.25-5.67,37.43-5.67,37.95,0,8.12,7,14.14,14.54,14.14s14.54-6,14.54-14.14c0-.55,0-1.67-5.67-37.95,28.5,23.13,29.68,23.71,30.25,24,5.85,2.93,14.24,1.87,19.41-5.93C3146.66,2947.73,3145.38,2939.63,3137.82,2935.34Z" transform="translate(-350 -664.55)"/><path class="cls-4" d="M2423,2550.33l-35.57-13.87,36-14.06c6.3-4.06,8.93-11.65,4.75-19.94-5.94-8.9-16-8-19.27-5.27-.57.29-1.75.87-30.24,24,5.67-36.27,5.67-37.39,5.67-37.94a13.34,13.34,0,0,0-4.4-10,14.67,14.67,0,0,0-20.3,0,13.37,13.37,0,0,0-4.39,10c0,.52,0,1.7,5.67,37.94-28.51-23.12-29.67-23.7-30.14-23.94-6.31-3.59-14.28-2.44-19.46,5.35-3.37,5.92-2.92,15.41,5.24,20l35.55,13.87-35.74,14c-8,4-8.41,13.67-5,19.65,4.85,7.29,13.24,8.7,19.26,5.68.57-.28,1.74-.87,30.25-24-5.67,36.24-5.67,37.42-5.67,37.94,0,8.12,7,14.14,14.55,14.14s14.54-6,14.54-14.14c0-.55,0-1.67-5.67-37.94,28.49,23.12,29.67,23.7,30.24,24,5.86,2.93,14.24,1.88,19.42-5.93C2431.81,2562.72,2430.53,2554.62,2423,2550.33Z" transform="translate(-350 -664.55)"/><path class="cls-4" d="M2601.69,2550.33l-35.56-13.87,36-14.06c6.3-4.06,8.93-11.65,4.76-19.94-5.95-8.9-16-8-19.27-5.27-.58.29-1.76.87-30.25,24,5.67-36.27,5.67-37.39,5.67-37.94,0-12.07-15.18-19-24.7-10a13.37,13.37,0,0,0-4.39,10c0,.52,0,1.7,5.67,37.94-28.51-23.12-29.67-23.7-30.14-23.94-6.3-3.59-14.28-2.44-19.46,5.35-3.37,5.92-2.92,15.41,5.24,20l35.55,13.87-35.74,14c-8,4-8.41,13.67-5,19.65,4.85,7.29,13.24,8.7,19.26,5.68.57-.28,1.74-.87,30.25-24-5.67,36.24-5.67,37.42-5.67,37.94,0,8.12,7,14.14,14.55,14.14s14.54-6,14.54-14.14c0-.55,0-1.67-5.67-37.94,28.49,23.12,29.67,23.7,30.25,24,5.85,2.93,14.24,1.88,19.41-5.93C2610.53,2562.72,2609.24,2554.62,2601.69,2550.33Z" transform="translate(-350 -664.55)"/><path class="cls-4" d="M2780.4,2550.33l-35.56-13.87,36-14.06a14.09,14.09,0,0,0,6.77-12.55c0-12.2-14.83-18.12-21.28-12.66-.58.29-1.75.87-30.25,24,5.67-36.27,5.67-37.39,5.67-37.94a13.34,13.34,0,0,0-4.4-10,14.65,14.65,0,0,0-20.29,0,13.34,13.34,0,0,0-4.4,10c0,.52,0,1.7,5.67,37.94-28.51-23.12-29.67-23.7-30.13-23.94-6.31-3.59-14.28-2.44-19.46,5.35-3.38,5.92-2.93,15.41,5.23,20l35.56,13.87-35.75,14c-8,4-8.41,13.67-5,19.65,4.85,7.29,13.24,8.7,19.26,5.68.57-.28,1.74-.87,30.25-24-5.67,36.24-5.67,37.42-5.67,37.94,0,8.12,7,14.14,14.55,14.14s14.54-6,14.54-14.14c0-.55,0-1.67-5.67-37.94,28.5,23.12,29.67,23.7,30.25,24,5.85,2.93,14.24,1.88,19.41-5.93C2789.24,2562.72,2788,2554.62,2780.4,2550.33Z" transform="translate(-350 -664.55)"/><path class="cls-4" d="M2959.11,2550.33l-35.56-13.87,36-14.06c6.3-4.06,8.93-11.65,4.76-19.94-5.95-8.9-16-8-19.27-5.27-.58.29-1.75.87-30.25,24,5.67-36.27,5.67-37.39,5.67-37.94a13.34,13.34,0,0,0-4.4-10,14.65,14.65,0,0,0-20.29,0,13.34,13.34,0,0,0-4.4,10c0,.52,0,1.7,5.68,37.94-28.52-23.12-29.67-23.7-30.14-23.94-6.31-3.59-14.28-2.44-19.46,5.35-3.38,5.92-2.93,15.41,5.23,20l35.56,13.87-35.75,14c-8,4-8.4,13.67-5,19.65,4.85,7.29,13.25,8.7,19.26,5.68.58-.28,1.74-.87,30.26-24-5.68,36.24-5.68,37.42-5.68,37.94,0,8.12,7,14.14,14.55,14.14s14.54-6,14.54-14.14c0-.55,0-1.67-5.67-37.94,28.5,23.12,29.68,23.7,30.25,24,5.85,2.93,14.24,1.88,19.41-5.93C2968,2562.72,2966.67,2554.62,2959.11,2550.33Z" transform="translate(-350 -664.55)"/><path class="cls-4" d="M3137.82,2550.33l-35.56-13.87,36-14.06c6.29-4.06,8.92-11.65,4.75-19.94-5.94-8.9-16-8-19.27-5.27-.58.29-1.75.87-30.25,24,5.67-36.27,5.67-37.39,5.67-37.94a13.33,13.33,0,0,0-4.39-10,14.67,14.67,0,0,0-20.3,0,13.33,13.33,0,0,0-4.39,10c0,.52,0,1.7,5.67,37.94-28.52-23.12-29.67-23.7-30.14-23.94-6.31-3.59-14.28-2.44-19.46,5.35-3.38,5.92-2.93,15.41,5.23,20l35.56,13.87-35.74,14c-8,4-8.41,13.67-5,19.65,4.85,7.29,13.25,8.7,19.26,5.68.58-.28,1.74-.87,30.26-24-5.67,36.24-5.67,37.42-5.67,37.94,0,8.12,7,14.14,14.54,14.14s14.54-6,14.54-14.14c0-.55,0-1.67-5.67-37.94,28.5,23.12,29.68,23.7,30.25,24,5.85,2.93,14.24,1.88,19.41-5.93C3146.66,2562.72,3145.38,2554.62,3137.82,2550.33Z" transform="translate(-350 -664.55)"/><path class="cls-4" d="M2555.41,3343.9h-39.24v-69.5a7.76,7.76,0,0,0-2.34-5.65,8,8,0,0,0-11.25,0,7.81,7.81,0,0,0-2.25,5.62v75.21a10.16,10.16,0,0,0,10.13,10.14h44.95a7.86,7.86,0,0,0,5.62-2.25,7.55,7.55,0,0,0,2.37-5.61,8,8,0,0,0-8-8Z" transform="translate(-350 -664.55)"/><path class="cls-4" d="M2645.2,3271.9c-6.94-4.06-15.12-6.12-24.33-6.12a47.81,47.81,0,0,0-24.38,6.12,42.21,42.21,0,0,0-16.27,16.93,53.68,53.68,0,0,0,0,49.13,42.21,42.21,0,0,0,16.27,16.93c7,4.06,15.17,6.12,24.38,6.12s17.4-2.06,24.33-6.12a42.62,42.62,0,0,0,16.26-17,52.88,52.88,0,0,0,0-49A42.62,42.62,0,0,0,2645.2,3271.9Zm-24.33,74a31.09,31.09,0,0,1-16.53-4.24,28.07,28.07,0,0,1-10.53-11.54,39.88,39.88,0,0,1,0-33.51,28,28,0,0,1,10.54-11.54,34.22,34.22,0,0,1,33,0,27.94,27.94,0,0,1,10.59,11.54,39.88,39.88,0,0,1,0,33.51,27.94,27.94,0,0,1-10.59,11.54A31.23,31.23,0,0,1,2620.87,3345.93Z" transform="translate(-350 -664.55)"/><path class="cls-4" d="M2757.75,3306.93H2732.8a7.34,7.34,0,0,0-7.35,7.35,7.36,7.36,0,0,0,7.35,7.36h18.73v19.45a43.93,43.93,0,0,1-20,4.71,34.13,34.13,0,0,1-17.34-4.21,28.18,28.18,0,0,1-11.08-11.42,35.28,35.28,0,0,1-3.86-16.65c0-6.76,1.37-12.65,4.09-17.49a27.13,27.13,0,0,1,11.21-11,34.72,34.72,0,0,1,16.34-3.81,43,43,0,0,1,12.3,1.69,50.91,50.91,0,0,1,11.55,5.18,7.8,7.8,0,0,0,9.05-1.33,7.24,7.24,0,0,0,2.06-5.17,7.44,7.44,0,0,0-1.07-3.89,6.38,6.38,0,0,0-2.47-2.49,65.65,65.65,0,0,0-14.73-6.94,58.51,58.51,0,0,0-18-2.51,46.93,46.93,0,0,0-23.41,6,43.63,43.63,0,0,0-16.72,16.91,50.15,50.15,0,0,0-6.1,24.86,51,51,0,0,0,5.83,24.51,42.2,42.2,0,0,0,16.54,16.94,48.36,48.36,0,0,0,24.24,6,66.43,66.43,0,0,0,29.91-7.3,10.36,10.36,0,0,0,4.39-3.89,10.89,10.89,0,0,0,1.67-5.91v-28.74a8.23,8.23,0,0,0-8.24-8.24Z" transform="translate(-350 -664.55)"/><path class="cls-4" d="M2832.41,3268.78a7.81,7.81,0,0,0-2.25,5.62v78.12a7.64,7.64,0,0,0,2.27,5.58,7.73,7.73,0,0,0,5.59,2.28,7.85,7.85,0,0,0,5.61-2.25,7.49,7.49,0,0,0,2.37-5.61V3274.4a7.73,7.73,0,0,0-2.34-5.65A8,8,0,0,0,2832.41,3268.78Z" transform="translate(-350 -664.55)"/><path class="cls-4" d="M2951.66,3268.75a7.89,7.89,0,0,0-13.5,5.65v61.45l-44.87-64.8c-2.37-3.08-5.29-4.64-8.68-4.64H2883a10,10,0,0,0-7.38,3.12,10.31,10.31,0,0,0-3,7.4v75.59a7.64,7.64,0,0,0,2.28,5.58,8.12,8.12,0,0,0,11.2,0,7.53,7.53,0,0,0,2.37-5.61v-61.58l45.11,65.15a10.72,10.72,0,0,0,3.62,3.08,10.08,10.08,0,0,0,4.82,1.21h1.52a10.27,10.27,0,0,0,7.39-3A9.93,9.93,0,0,0,2954,3350V3274.4A7.73,7.73,0,0,0,2951.66,3268.75Z" transform="translate(-350 -664.55)"/><g class="cls-7"><path d="M3605.42,2757.83v801a182.37,182.37,0,0,1-46.5,122c-223-199.08-310.51-500.59-352.69-669.07a72.43,72.43,0,0,1,58-88.86C3419.31,2896.13,3530.05,2826.81,3605.42,2757.83Z" transform="translate(-350 -664.55)"/></g><path class="cls-5" d="M4222.48,3030.81c-45.8,182.89-150.4,538.62-453.86,701.42a63.4,63.4,0,0,1-59.63,0c-303.47-162.8-408.06-518.53-453.86-701.42a65.75,65.75,0,0,1,52.65-80.71c198.93-34.32,317.62-145.66,378.63-224.27a66.06,66.06,0,0,1,104.79,0c61,78.61,179.7,190,378.63,224.27A65.75,65.75,0,0,1,4222.48,3030.81Z" transform="translate(-350 -664.55)"/><path class="cls-4" d="M3738.8,3624.79c-227.82-127.89-321.33-388.9-371.4-582.72,184.27-36.74,301.95-135.56,371.4-219.18,69.46,83.62,187.14,182.44,371.41,219.18C4060.14,3235.89,3966.63,3496.9,3738.8,3624.79Z" transform="translate(-350 -664.55)"/><path class="cls-3" d="M3657.54,3328.62l-55-55a25,25,0,1,1,35.33-35.33l37.37,37.37,164.56-164.57a25,25,0,0,1,35.33,35.34l-182.23,182.23A25,25,0,0,1,3657.54,3328.62Z" transform="translate(-350 -664.55)"/><path class="cls-5" d="M1257.55,3725.7v-30.2H1077.32c-2.36,58.39-7,168.52-8.36,168.52h293.27C1372.2,3767.65,1257.55,3725.7,1257.55,3725.7Z" transform="translate(-350 -664.55)"/><path class="cls-3" d="M1358.19,3822.09a106.2,106.2,0,0,1,4,41.93H1069c.55,0,1.61-17.39,2.83-41.93Z" transform="translate(-350 -664.55)"/><path class="cls-5" d="M604.28,3725.7v-30.2H424.05c-2.36,58.39-7,168.52-8.36,168.52H709C718.92,3767.65,604.28,3725.7,604.28,3725.7Z" transform="translate(-350 -664.55)"/><path class="cls-3" d="M704.91,3822.09a105.83,105.83,0,0,1,4,41.93H415.69c.54,0,1.6-17.39,2.83-41.93Z" transform="translate(-350 -664.55)"/><path class="cls-3" d="M415.7,3726.45c0,14.09,211.2,14.09,211.2,0l262.25-863.17,176.76,852.06c0,14.84,211,14.84,211,0l-86.33-1250.4H604.5Z" transform="translate(-350 -664.55)"/><path class="cls-4" d="M1748.45,1990.21s11.75,40.55,2.59,71.41-85.06,26.71-85.06,26.71-319,256.3-475,220.08c-94.4-22-178.16-281.54-178.16-281.54l246.36-91.63,58.52,133.46L1653.19,1976s-.52-78.32,23.08-64.83c22.82,13.05,11.32,42.87,10.54,44.86,2.86-1.12,124.74-51.69,137.71-20.74C1837.66,1966.53,1748.45,1990.21,1748.45,1990.21Z" transform="translate(-350 -664.55)"/><path class="cls-3" d="M1224.08,2316.13a150.58,150.58,0,0,1-34-3.63c-95.61-22.24-177.75-273.66-181.21-284.35a4.2,4.2,0,0,1,2.53-5.22l246.37-91.63a4.22,4.22,0,0,1,5.31,2.25l57.06,130.14L1649,1972.75c.11-14.63,1.7-57.29,16.18-65.76,2.78-1.63,7.32-2.86,13.17.48,18.31,10.48,17.38,30,14.9,41.42,42.32-16.61,123.15-43.9,135.14-15.28a20.3,20.3,0,0,1-.67,17.45c-10.88,22.12-59.62,37.82-74.17,42.07,2.76,11.29,9.3,43.47,1.51,69.68-9.3,31.45-76.09,30.21-87.69,29.78C1644.12,2111.13,1383.42,2316.11,1224.08,2316.13Zm-206-286.75c10.82,32.07,89,255.2,173.85,274.95,152.3,35.34,468.26-216.72,471.43-219.27a4.08,4.08,0,0,1,2.86-.92c20.16,1.1,74.06-1,80.8-23.72,8.71-29.34-2.49-68.65-2.6-69a4.2,4.2,0,0,1,2.95-5.22c17.19-4.57,63.8-20.45,72.82-38.81a12,12,0,0,0,.46-10.49c-7.53-18-73.55-.81-131.69,22.78a4.64,4.64,0,0,1-4.81-.79,4.14,4.14,0,0,1-1.24-4.4c1.14-2.9,10.55-28.67-8.73-39.69-2.88-1.65-4.2-.86-4.76-.53-8.54,5-12.18,39.08-12,61.69a4.18,4.18,0,0,1-3.07,4.07l-335.49,92.76a4.18,4.18,0,0,1-5-2.36l-56.93-129.84Z" transform="translate(-350 -664.55)"/><path class="cls-8" d="M1068.27,1638.82s165.94,29.33,208.66,161.13c11.66,36,52.33,228.42,52.33,228.42l-291,46.41Z" transform="translate(-350 -664.55)"/><path class="cls-3" d="M1205.59,2060.37h0a4.21,4.21,0,0,1-4.17-4.23,783.6,783.6,0,0,0-7.25-111.52,4.19,4.19,0,0,1,8.31-1.14,793,793,0,0,1,7.33,112.72A4.19,4.19,0,0,1,1205.59,2060.37Z" transform="translate(-350 -664.55)"/><path class="cls-8" d="M580.52,1659c39.9-67,487.54-78.61,564.28,27.21,79.3,109.34,62.49,837.6,62.49,837.6,5.46,73.91-648.87,77.31-654.33,3.4C553,2527.16,539.36,1728.1,580.52,1659Z" transform="translate(-350 -664.55)"/><path class="cls-4" d="M825.53,2542.2H981.8a11.45,11.45,0,0,0,10.29-6.43l114.75-235.43a11.45,11.45,0,0,0-10.29-16.46H940.27a11.42,11.42,0,0,0-10.28,6.43L815.24,2525.74A11.44,11.44,0,0,0,825.53,2542.2Z" transform="translate(-350 -664.55)"/><path class="cls-3" d="M981.8,2546.4H825.53a15.65,15.65,0,0,1-14.06-22.5l114.74-235.43a15.74,15.74,0,0,1,14.07-8.79h156.27a15.64,15.64,0,0,1,14,22.5L995.86,2537.61A15.74,15.74,0,0,1,981.8,2546.4Zm-41.52-258.33a7.29,7.29,0,0,0-6.52,4.07L819,2527.58a7.25,7.25,0,0,0,6.52,10.43H981.8a7.23,7.23,0,0,0,6.52-4.08l114.74-235.43a7.24,7.24,0,0,0-6.51-10.43Z" transform="translate(-350 -664.55)"/><path class="cls-4" d="M354.19,2132.38c-.11,141.41,426,285.65,426,285.65s96.6,141.21,177.14,72.7-73.38-106.09-73.38-106.09l21-43c-1-25-64.52,9.1-64.52,9.1L572.67,2114.37l62.16-107.79-209-95.48S354.24,2077.5,354.19,2132.38Z" transform="translate(-350 -664.55)"/><path class="cls-3" d="M909.14,2513.68a80.07,80.07,0,0,1-10.62-.72c-60.3-8.07-113.57-80.86-121-91.4C746.74,2411,349.89,2272.61,350,2132.38c0-55.11,69.08-216.11,72-222.93a4.2,4.2,0,0,1,5.6-2.16l209,95.47a4.21,4.21,0,0,1,1.88,5.91L578,2113.49l263,232.19c11.94-6.19,47.6-23.34,61.84-15.21,2.72,1.55,6,4.71,6.26,11a4.14,4.14,0,0,1-.42,2L890,2381.89c19.09,5.29,85.3,26.1,93.91,62.31,3.86,16.23-4.15,33-23.82,49.72C944.59,2507.06,927.52,2513.68,909.14,2513.68Zm-481.1-597c-10.77,25.49-69.61,166.92-69.65,215.68h0c-.11,136.81,418.9,280.23,423.13,281.67a4.18,4.18,0,0,1,2.12,1.6c.56.81,56.07,81,116,89,20,2.7,38.46-3.08,55-17.1,17.07-14.56,24.17-28.48,21.1-41.39-8.67-36.51-91.91-57.23-92.75-57.43a4.23,4.23,0,0,1-2.8-2.3,4.18,4.18,0,0,1,0-3.62l20.44-42a3.79,3.79,0,0,0-1.94-3.09c-8.48-4.84-38,6.84-56.31,16.68a4.23,4.23,0,0,1-4.77-.55L569.9,2117.52a4.2,4.2,0,0,1-.86-5.25l59.85-103.79ZM354.2,2132.39h0Z" transform="translate(-350 -664.55)"/><path class="cls-8" d="M606.41,1639.85c-5.31,3.8-61,25-105.78,93.62-32.2,49.32-98.06,188-98.06,188C383.21,1944.83,589.35,2101.59,613,2071.4c0,0,93-144.31,96.63-221.84C714.29,1750.23,606.41,1639.85,606.41,1639.85Z" transform="translate(-350 -664.55)"/><path class="cls-3" d="M602.69,2079c-.65,0-1.31,0-2-.07-42.64-2.77-170.46-91.9-198.2-138.22a4.19,4.19,0,1,1,7.19-4.31c26.24,43.79,151.55,131.56,191.56,134.16,3.61.23,6.11-.34,7.1-1.6.69-1.11,92.23-143.92,95.74-219.43a4,4,0,0,1,4.38-4,4.21,4.21,0,0,1,4,4.39c-3.62,77.76-93.48,218-97.3,223.91C612.39,2077.32,608.27,2079,602.69,2079Z" transform="translate(-350 -664.55)"/><path class="cls-6" d="M425.85,1964.7" transform="translate(-350 -664.55)"/><path class="cls-4" d="M938.61,1538.21s20.54,40,43.49,75.57c17.27,26.82-15.26,77.77-45,93.31-48.39,25.33-143-89-143-89l-3.79-252.21Z" transform="translate(-350 -664.55)"/><path class="cls-3" d="M922.79,1714.63c-52.84,0-132-99-135.71-103.64l-.91-1.15V1354.53l156.17,181.76c.2.4,20.72,40.18,43.29,75.22,19.12,29.68-15.65,83.13-46.56,99.3A34.58,34.58,0,0,1,922.79,1714.63ZM794.56,1606.91c27.58,34.44,103.91,115.67,140.62,96.47,27.39-14.34,59.13-62.92,43.4-87.32-21.51-33.38-41.14-71-43.48-75.49L794.56,1377.15Z" transform="translate(-350 -664.55)"/><path class="cls-4" d="M796.2,1332.94c2.47,3.44,25.28,237.82,166.39,222s104.36-307.4,41.36-372-191.64-6.7-191.64-6.7l-42.18,101.56Z" transform="translate(-350 -664.55)"/><path class="cls-3" d="M949.43,1559.84c-77,0-132.12-76.79-155.85-218.34-.59-3.53-1-5.91-1.22-6.88l-26.81-56.77L809.07,1173l1.52-.68c5.36-2.42,132-58.37,196.36,7.59,47,48.2,76.58,206.24,42.44,301.84-16.45,46-46.3,72.77-86.33,77.27A121.77,121.77,0,0,1,949.43,1559.84ZM799.88,1330.91c.6,1,.84,2.46,2,9.2,24.62,146.81,80,219.62,160.27,210.61,37.15-4.17,63.85-28.32,79.37-71.75,32.62-91.35,3.91-247.57-40.55-293.16-56.64-58.09-171-12.53-185.41-6.45l-40.81,98.26Z" transform="translate(-350 -664.55)"/><path class="cls-3" d="M903.79,1335.19c.29,7.73,4.94,13.83,10.37,13.62s9.59-6.65,9.29-14.38-4.94-13.83-10.37-13.62S903.49,1327.45,903.79,1335.19Z" transform="translate(-350 -664.55)"/><ellipse class="cls-3" cx="1006.89" cy="1334.03" rx="9.84" ry="14.01" transform="translate(-400.52 -624.88) rotate(-2.2)"/><path class="cls-3" d="M960.64,1423.54l-5.26-6.53c3.73-3,8.26-3.34,13.1-4,2.91-.45,5.21-1.71,5.46-3,.33-1.65-2.08-4.16-4-6.17-14.41-14.94-20.55-37.36-15.81-57.3l8.16,1.94a54.54,54.54,0,0,0,13.51,49.35c3.3,3.43,7.57,7.86,6.39,13.81-1,5-5.62,8.6-12.41,9.65C966.64,1421.75,962.57,1422,960.64,1423.54Z" transform="translate(-350 -664.55)"/><path class="cls-3" d="M945,1495.63a31.81,31.81,0,0,1-29.64-20.1l7.8-3.1a24.06,24.06,0,0,0,12.44,12.87,23.7,23.7,0,0,0,17.9.36l3,7.83A32.06,32.06,0,0,1,945,1495.63Z" transform="translate(-350 -664.55)"/><path class="cls-3" d="M1085,1221.94a100.29,100.29,0,0,1-19.1,9.11c-55.54,18.34-205.85-16-210.24,5.32-4.44,21-13.55,146.83-23.24,131.32-18.26-29.25-25-77.57-26.09,6.19.68,31.19-8.69,78.5-8.69,78.5-80.7-2.14-157.78-191.19-78.58-204.26,0,0-24-37.46-9.09-71,14.88-33.78,121.11-219.05,324.46-76.51,3.88-5,40.23-48,55.34-17.3C1103.41,1111.56,1126.6,1196,1085,1221.94Z" transform="translate(-350 -664.55)"/><path class="cls-9" d="M4647.84,1076.38v648.08a84.39,84.39,0,0,1-84.37,84.44H3852.75a84.38,84.38,0,0,1-84.36-84.44V1076.38a84.39,84.39,0,0,1,84.36-84.45h710.72A84.4,84.4,0,0,1,4647.84,1076.38Z" transform="translate(-350 -664.55)"/><path class="cls-4" d="M4029.29,1515.42V1626a23.18,23.18,0,0,1-23.19,23.19h-77.25a23.14,23.14,0,0,1-23.19-23.19V1515.42a23.19,23.19,0,0,1,23.19-23.19h77.25A23.23,23.23,0,0,1,4029.29,1515.42Z" transform="translate(-350 -664.55)"/><path class="cls-4" d="M4189.72,1515.42V1626a23.19,23.19,0,0,1-23.19,23.19h-77.26a23.14,23.14,0,0,1-23.19-23.19V1515.42a23.19,23.19,0,0,1,23.19-23.19h77.26A23.24,23.24,0,0,1,4189.72,1515.42Z" transform="translate(-350 -664.55)"/><path class="cls-4" d="M4350.14,1515.42V1626a23.18,23.18,0,0,1-23.19,23.19H4249.7a23.14,23.14,0,0,1-23.19-23.19V1515.42a23.19,23.19,0,0,1,23.19-23.19H4327A23.23,23.23,0,0,1,4350.14,1515.42Z" transform="translate(-350 -664.55)"/><path class="cls-4" d="M4510.57,1515.42V1626a23.19,23.19,0,0,1-23.19,23.19h-77.26a23.14,23.14,0,0,1-23.19-23.19V1515.42a23.19,23.19,0,0,1,23.19-23.19h77.26A23.24,23.24,0,0,1,4510.57,1515.42Z" transform="translate(-350 -664.55)"/><path d="M3989.31,1575.43l-12.14-4.73,12.47-4.9c2.89-1.85,4.19-5.43,2.19-9.35-2.74-4.11-7.56-3.7-9-2.44-.29.14-.75.38-10.49,8.26,1.92-12.37,1.92-12.78,1.92-13.07a6.35,6.35,0,0,0-2.07-4.73,6.85,6.85,0,0,0-9.48,0,6.38,6.38,0,0,0-2.06,4.73c0,.26,0,.72,1.92,13.08-9.75-7.89-10.17-8.11-10.41-8.23-3.36-1.92-6.94-.8-9.13,2.51a6.78,6.78,0,0,0,2.59,9.41l12.13,4.73-12.29,4.8c-3.66,1.83-4.11,6.29-2.36,9.29a7,7,0,0,0,9,2.61c.3-.15.75-.38,10.49-8.27-1.92,12.35-1.92,12.81-1.92,13.07a6.81,6.81,0,0,0,13.61,0c0-.28,0-.7-1.92-13.07,9.74,7.89,10.2,8.12,10.5,8.27,2.76,1.38,6.64.91,9.09-2.81C3993.62,1581.24,3992.91,1577.46,3989.31,1575.43Z" transform="translate(-350 -664.55)"/><path d="M4149.74,1575.43l-12.14-4.73,12.47-4.9a6.64,6.64,0,0,0,3.16-5.85,7.65,7.65,0,0,0-1-3.5c-2.74-4.11-7.57-3.7-9-2.44-.29.14-.75.38-10.49,8.26,1.93-12.37,1.93-12.78,1.93-13.07a6.39,6.39,0,0,0-2.07-4.73,6.85,6.85,0,0,0-9.48,0,6.39,6.39,0,0,0-2.07,4.73c0,.26,0,.72,1.93,13.08-9.75-7.89-10.18-8.11-10.41-8.23-3.37-1.92-6.94-.8-9.14,2.51a6.78,6.78,0,0,0,2.59,9.41l12.13,4.73-12.28,4.8c-3.67,1.83-4.11,6.29-2.37,9.29a7,7,0,0,0,9,2.61c.31-.15.75-.38,10.5-8.27-1.93,12.35-1.93,12.81-1.93,13.07a6.81,6.81,0,0,0,13.62,0c0-.28,0-.7-1.93-13.07,9.74,7.89,10.21,8.12,10.5,8.27,2.76,1.38,6.64.91,9.09-2.81C4154.05,1581.24,4153.34,1577.46,4149.74,1575.43Z" transform="translate(-350 -664.55)"/><path d="M4310.16,1575.43,4298,1570.7l12.47-4.9c2.89-1.85,4.19-5.43,2.19-9.35-2.74-4.11-7.56-3.7-9-2.44-.28.14-.74.38-10.48,8.26,1.92-12.37,1.92-12.78,1.92-13.07a6.35,6.35,0,0,0-2.07-4.73,6.85,6.85,0,0,0-9.48,0,6.38,6.38,0,0,0-2.06,4.73c0,.26,0,.72,1.92,13.08-9.75-7.89-10.17-8.11-10.41-8.23-3.36-1.92-6.94-.8-9.13,2.51a6.78,6.78,0,0,0,2.59,9.41l12.13,4.73-12.29,4.8c-3.66,1.83-4.11,6.29-2.37,9.29a7,7,0,0,0,9,2.61c.3-.15.75-.38,10.49-8.27-1.92,12.35-1.92,12.81-1.92,13.07a6.81,6.81,0,0,0,13.61,0c0-.28,0-.7-1.92-13.07,9.73,7.89,10.2,8.12,10.5,8.27,2.76,1.38,6.64.91,9.09-2.81C4314.47,1581.24,4313.76,1577.46,4310.16,1575.43Z" transform="translate(-350 -664.55)"/><path d="M4470.59,1575.43l-12.14-4.73,12.47-4.9c2.88-1.85,4.19-5.43,2.19-9.35-2.74-4.11-7.57-3.7-9-2.44-.29.14-.75.38-10.49,8.26,1.93-12.37,1.93-12.78,1.93-13.07a6.39,6.39,0,0,0-2.07-4.73,6.85,6.85,0,0,0-9.48,0,6.39,6.39,0,0,0-2.07,4.73c0,.26,0,.72,1.93,13.08-9.75-7.89-10.18-8.11-10.41-8.23-3.37-1.92-6.94-.8-9.14,2.51a6.78,6.78,0,0,0,2.59,9.41l12.13,4.73-12.28,4.8c-3.67,1.83-4.11,6.29-2.37,9.29a7,7,0,0,0,9,2.61c.31-.15.75-.38,10.5-8.27-1.93,12.35-1.93,12.81-1.93,13.07a6.81,6.81,0,0,0,13.62,0c0-.28,0-.7-1.93-13.07,9.74,7.89,10.21,8.12,10.5,8.27,2.76,1.38,6.64.91,9.09-2.81C4474.9,1581.24,4474.19,1577.46,4470.59,1575.43Z" transform="translate(-350 -664.55)"/><path class="cls-5" d="M4443.3,1163.8a235.19,235.19,0,1,1-470.37,0c0-129.87,105.31-235.18,235.18-235.18S4443.3,1033.93,4443.3,1163.8Z" transform="translate(-350 -664.55)"/><path class="cls-6" d="M4316.17,1372.75a235.5,235.5,0,0,1-216.06,0,139.78,139.78,0,0,1,216.06,0Z" transform="translate(-350 -664.55)"/><path class="cls-4" d="M4241.49,1327.49c0,6.14-68.07,6.14-68.07,0v-42.7h68.07Z" transform="translate(-350 -664.55)"/><path class="cls-3" d="M4108.48,1191.68c16.13,17.41,40.85,19.57,64.45,19.51,42.76-.12,85.31-5.58,127.72-11,7.69-1,15.82-2.16,21.83-7.07,7.62-6.23,9.77-18.21,4.8-26.7-3.74-6.39-10.51-10.29-17-13.89-72.7-40.57-86.07-49.44-106.69-53.74-38.14-8-76.34,11.31-93.11,10.1-5.52-.4-8.75-3.7-10.67,2.68C4091.89,1137.9,4089.69,1171.4,4108.48,1191.68Z" transform="translate(-350 -664.55)"/><path class="cls-4" d="M4287.46,1191.24c0,55.18-35.25,112-78.74,112s-78.74-56.84-78.74-112C4130,1073.86,4287.46,1073.87,4287.46,1191.24Z" transform="translate(-350 -664.55)"/><ellipse class="cls-3" cx="3891.49" cy="521.17" rx="8.4" ry="11.31"/><ellipse class="cls-3" cx="3825.95" cy="521.17" rx="8.4" ry="11.31"/><path class="cls-3" d="M4207.94,1271.71a36.11,36.11,0,0,1-20.5-6.4,4.19,4.19,0,1,1,4.77-6.9,28,28,0,0,0,17.2,4.87,27.63,27.63,0,0,0,16.56-6.71,4.19,4.19,0,1,1,5.5,6.33,36,36,0,0,1-21.6,8.76C4209.23,1271.69,4208.58,1271.71,4207.94,1271.71Z" transform="translate(-350 -664.55)"/><path class="cls-3" d="M4143.65,1158.68c13.48-.53,26.12-6.23,39.45-8.09,45.48-6.34,87.23,32.06,133,28.13,10.15-.87,20.57-4.17,27.24-11.42s8.3-19.07,1.68-26.37c-6.24-6.89-17.92-8.43-22.71-16.28-5.07-8.32.38-18.7,6.27-26.53s12.71-16.83,10.15-26.11c-2.24-8.14-11.18-13.16-19.94-14.83s-17.84-.86-26.7-2-18.19-4.81-22.1-12.37c-4.07-7.88-1.05-17.27,2.58-25.34s7.9-16.61,6.14-25.21c-1.85-9-10.33-15.95-19.68-18.68s-19.43-2-29.07-.34c-35.85,6-69.44,23.43-94,48.77a156.54,156.54,0,0,0-30.85,46c-6.46,14.78-14.63,36-11.93,52.09C4097,1142.62,4118.71,1159.66,4143.65,1158.68Z" transform="translate(-350 -664.55)"/><path class="cls-3" d="M4209.07,1242.63c-4.72-2.17-7.84-7.55-8-13.73-.18-10.13,6.78-18.46,1.18-37.53a4.19,4.19,0,0,1,8-2.36c6.22,21.16-1,31.77-.83,39.74.05,2.35,1,5.31,3.07,6.25a4.2,4.2,0,0,1-3.5,7.63Z" transform="translate(-350 -664.55)"/><path class="cls-3" d="M1610.56,1220.09a209.86,209.86,0,0,1-177.39-23.17l31.85-42.69-7.44-5.54-.17-.17-7.36-5.54-32,43.35a209.8,209.8,0,0,1-71.9-102.51c-35.41-110.62,25.65-229,136.27-264.34s229,25.57,264.42,136.18S1721.26,1184.68,1610.56,1220.09Z" transform="translate(-350 -664.55)"/><polygon class="cls-3" points="980.05 610.36 994.21 620.94 1104.17 473.28 1090.01 462.7 980.05 610.36"/><path class="cls-4" d="M1499.66,1075.56l-36.36-36.36a16.86,16.86,0,1,1,23.85-23.85l24.43,24.43,94.2-94.2a16.87,16.87,0,0,1,23.85,23.86l-106.12,106.12A16.86,16.86,0,0,1,1499.66,1075.56Z" transform="translate(-350 -664.55)"/><line class="cls-9" x1="3778.41" y1="1907.52" x2="4001.29" y2="1907.52"/><path class="cls-10" d="M4351.29,2575.22H4128.41a3.15,3.15,0,0,1,0-6.29h222.88a3.15,3.15,0,0,1,0,6.29Z" transform="translate(-350 -664.55)"/><line class="cls-9" x1="3778.41" y1="2018.01" x2="4001.29" y2="2018.01"/><path class="cls-10" d="M4351.29,2685.71H4128.41a3.15,3.15,0,0,1,0-6.3h222.88a3.15,3.15,0,0,1,0,6.3Z" transform="translate(-350 -664.55)"/><line class="cls-9" x1="3645.54" y1="1962.76" x2="3960.81" y2="1962.76"/><path class="cls-10" d="M4310.81,2630.46H3995.54a3.15,3.15,0,0,1,0-6.29h315.27a3.15,3.15,0,0,1,0,6.29Z" transform="translate(-350 -664.55)"/><line class="cls-9" x1="3824.28" y1="1860.56" x2="3824.28" y2="1907.52"/><path class="cls-10" d="M4174.28,2575.22a3.15,3.15,0,0,1-3.15-3.15v-47a3.15,3.15,0,0,1,6.29,0v47A3.15,3.15,0,0,1,4174.28,2575.22Z" transform="translate(-350 -664.55)"/><line class="cls-9" x1="3902.64" y1="1907.52" x2="3902.64" y2="1962.76"/><path class="cls-10" d="M4252.64,2630.46a3.15,3.15,0,0,1-3.15-3.14v-55.25a3.15,3.15,0,0,1,6.3,0v55.25A3.15,3.15,0,0,1,4252.64,2630.46Z" transform="translate(-350 -664.55)"/><line class="cls-9" x1="3843.02" y1="1962.76" x2="3843.02" y2="2016.16"/><path class="cls-10" d="M4193,2683.86a3.15,3.15,0,0,1-3.14-3.15v-53.39a3.15,3.15,0,1,1,6.29,0v53.39A3.15,3.15,0,0,1,4193,2683.86Z" transform="translate(-350 -664.55)"/><line class="cls-9" x1="1087.22" y1="2453.84" x2="1310.09" y2="2453.84"/><path class="cls-10" d="M1660.1,3121.54H1437.22a3.15,3.15,0,1,1,0-6.29H1660.1a3.15,3.15,0,0,1,0,6.29Z" transform="translate(-350 -664.55)"/><line class="cls-9" x1="1087.22" y1="2564.33" x2="1310.09" y2="2564.33"/><path class="cls-10" d="M1660.1,3232H1437.22a3.15,3.15,0,0,1,0-6.3H1660.1a3.15,3.15,0,0,1,0,6.3Z" transform="translate(-350 -664.55)"/><line class="cls-9" x1="954.35" y1="2509.08" x2="1269.61" y2="2509.08"/><path class="cls-10" d="M1619.61,3176.78H1304.35a3.15,3.15,0,1,1,0-6.29h315.26a3.15,3.15,0,1,1,0,6.29Z" transform="translate(-350 -664.55)"/><line class="cls-9" x1="1133.08" y1="2406.88" x2="1133.08" y2="2453.84"/><path class="cls-10" d="M1483.08,3121.54a3.15,3.15,0,0,1-3.15-3.15v-47a3.15,3.15,0,0,1,6.3,0v47A3.15,3.15,0,0,1,1483.08,3121.54Z" transform="translate(-350 -664.55)"/><line class="cls-9" x1="1211.44" y1="2453.84" x2="1211.44" y2="2509.08"/><path class="cls-10" d="M1561.44,3176.78a3.15,3.15,0,0,1-3.14-3.14v-55.25a3.15,3.15,0,0,1,6.29,0v55.25A3.15,3.15,0,0,1,1561.44,3176.78Z" transform="translate(-350 -664.55)"/><line class="cls-9" x1="1151.83" y1="2509.08" x2="1151.83" y2="2562.48"/><path class="cls-10" d="M1501.83,3230.18a3.15,3.15,0,0,1-3.15-3.14v-53.4a3.15,3.15,0,1,1,6.29,0V3227A3.15,3.15,0,0,1,1501.83,3230.18Z" transform="translate(-350 -664.55)"/><line class="cls-9" x1="1081.7" y1="925.79" x2="1304.58" y2="925.79"/><path class="cls-10" d="M1654.58,1593.49H1431.7a3.15,3.15,0,0,1,0-6.29h222.88a3.15,3.15,0,1,1,0,6.29Z" transform="translate(-350 -664.55)"/><line class="cls-9" x1="1081.7" y1="1036.27" x2="1304.58" y2="1036.27"/><path class="cls-10" d="M1654.58,1704H1431.7a3.15,3.15,0,0,1,0-6.29h222.88a3.15,3.15,0,1,1,0,6.29Z" transform="translate(-350 -664.55)"/><line class="cls-9" x1="948.84" y1="981.03" x2="1264.1" y2="981.03"/><path class="cls-10" d="M1614.1,1648.73H1298.84a3.15,3.15,0,1,1,0-6.29H1614.1a3.15,3.15,0,1,1,0,6.29Z" transform="translate(-350 -664.55)"/><line class="cls-9" x1="1127.57" y1="878.83" x2="1127.57" y2="925.79"/><path class="cls-10" d="M1477.57,1593.49a3.15,3.15,0,0,1-3.15-3.15v-47a3.15,3.15,0,1,1,6.29,0v47A3.15,3.15,0,0,1,1477.57,1593.49Z" transform="translate(-350 -664.55)"/><line class="cls-9" x1="1205.93" y1="925.79" x2="1205.93" y2="981.03"/><path class="cls-10" d="M1555.93,1648.73a3.15,3.15,0,0,1-3.15-3.15v-55.24a3.15,3.15,0,0,1,6.3,0v55.24A3.15,3.15,0,0,1,1555.93,1648.73Z" transform="translate(-350 -664.55)"/><line class="cls-9" x1="1146.32" y1="981.03" x2="1146.32" y2="1034.43"/><path class="cls-10" d="M1496.31,1702.13a3.15,3.15,0,0,1-3.14-3.15v-53.4a3.15,3.15,0,0,1,6.29,0V1699A3.15,3.15,0,0,1,1496.31,1702.13Z" transform="translate(-350 -664.55)"/><line class="cls-9" x1="3373.38" y1="113.09" x2="3596.26" y2="113.09"/><path class="cls-10" d="M3946.26,780.79H3723.38a3.15,3.15,0,0,1,0-6.29h222.88a3.15,3.15,0,1,1,0,6.29Z" transform="translate(-350 -664.55)"/><line class="cls-9" x1="3373.38" y1="223.58" x2="3596.26" y2="223.58"/><path class="cls-10" d="M3946.26,891.28H3723.38a3.15,3.15,0,0,1,0-6.29h222.88a3.15,3.15,0,1,1,0,6.29Z" transform="translate(-350 -664.55)"/><line class="cls-9" x1="3240.51" y1="168.34" x2="3555.78" y2="168.34"/><path class="cls-10" d="M3905.78,836H3590.52a3.15,3.15,0,1,1,0-6.29h315.26a3.15,3.15,0,1,1,0,6.29Z" transform="translate(-350 -664.55)"/><line class="cls-9" x1="3419.25" y1="66.13" x2="3419.25" y2="113.09"/><path class="cls-10" d="M3769.25,780.79a3.15,3.15,0,0,1-3.15-3.14v-47a3.15,3.15,0,1,1,6.29,0v47A3.15,3.15,0,0,1,3769.25,780.79Z" transform="translate(-350 -664.55)"/><line class="cls-9" x1="3497.61" y1="113.09" x2="3497.61" y2="168.34"/><path class="cls-10" d="M3847.61,836a3.15,3.15,0,0,1-3.15-3.15V777.65a3.15,3.15,0,0,1,6.3,0v55.24A3.15,3.15,0,0,1,3847.61,836Z" transform="translate(-350 -664.55)"/><line class="cls-9" x1="3437.99" y1="168.34" x2="3437.99" y2="221.74"/><path class="cls-10" d="M3788,889.44a3.15,3.15,0,0,1-3.14-3.15v-53.4a3.15,3.15,0,0,1,6.29,0v53.4A3.15,3.15,0,0,1,3788,889.44Z" transform="translate(-350 -664.55)"/><path d="M1920,4272.92a8.75,8.75,0,0,1-3.86-3.18,8.23,8.23,0,0,1,.68-10.42,7.38,7.38,0,0,1,5.69-2.41,9,9,0,0,1,3.67.77,92.22,92.22,0,0,0,38,7.91q33.78,0,33.78-22.19a12.38,12.38,0,0,0-4.35-9.65,31.48,31.48,0,0,0-10.71-6.08q-6.36-2.22-18.14-5.3a234.29,234.29,0,0,1-25.28-7.82,44.05,44.05,0,0,1-16.59-11.29q-6.95-7.53-7-20.07a36.06,36.06,0,0,1,5.79-20q5.79-9,17.08-14.28t27.11-5.31q21.22,0,38.4,6.37a7.53,7.53,0,0,1,5.41,7.72,8.41,8.41,0,0,1-2.13,5.59,6.94,6.94,0,0,1-5.59,2.51,8.8,8.8,0,0,1-3.09-.77,94.39,94.39,0,0,0-31.07-5.21q-15.24,0-24.8,5.79t-9.55,16.21a14.92,14.92,0,0,0,4.54,11.29,31,31,0,0,0,11.38,6.75A179.11,179.11,0,0,0,1968,4205a193.77,193.77,0,0,1,24.61,7.33,40.31,40.31,0,0,1,16,11.39q6.64,7.71,6.65,20.84a32.43,32.43,0,0,1-6.17,19.39q-6.18,8.6-17.37,13.41t-25.86,4.83A114.39,114.39,0,0,1,1920,4272.92Z" transform="translate(-350 -664.55)"/><path d="M2046.1,4268.78q-13.21-13.41-13.22-37.73a62.83,62.83,0,0,1,5-25.28,42.92,42.92,0,0,1,15.44-18.72q10.42-7.14,25.66-7.14,14.28,0,24.71,6.66a43.12,43.12,0,0,1,15.82,17.75,54.61,54.61,0,0,1,5.4,24.22,8.41,8.41,0,0,1-8.87,8.68h-65.42q1.55,13.51,10,21t23.74,7.52a58,58,0,0,0,14.18-1.54,59,59,0,0,0,11.87-4.44,8.05,8.05,0,0,1,8.88,1.35,7,7,0,0,1,2.31,5.41q0,4.24-5,7.14a69.53,69.53,0,0,1-14.85,6.36q-7.35,2.13-18.92,2.13Q2059.32,4282.19,2046.1,4268.78Zm61.46-45.84q-.57-9.45-4.92-15.82a26.59,26.59,0,0,0-10.71-9.36,29.43,29.43,0,0,0-25.85,0,26,26,0,0,0-10.62,9.36q-4.24,6.38-4.82,15.82Z" transform="translate(-350 -664.55)"/><path d="M2168,4276a47.47,47.47,0,0,1-18.81-17.75q-7.05-11.58-7-27.21t7-27.21a47.47,47.47,0,0,1,18.81-17.75,54.4,54.4,0,0,1,25.67-6.18,53.44,53.44,0,0,1,17.66,2.61,66.63,66.63,0,0,1,13.8,6.65,7.68,7.68,0,0,1,1.64,12.06,6.79,6.79,0,0,1-5.12,2.42,8.8,8.8,0,0,1-4.24-1.16,73.7,73.7,0,0,0-10.91-4.73,37.73,37.73,0,0,0-11.29-1.45q-16.59,0-26.05,9.56t-9.45,25.18q0,15.63,9.45,25.18t26.05,9.55a37.76,37.76,0,0,0,11.29-1.44,73.7,73.7,0,0,0,10.91-4.73,8.8,8.8,0,0,1,4.24-1.16,6.81,6.81,0,0,1,5.12,2.41,7.68,7.68,0,0,1-1.64,12.06,66.16,66.16,0,0,1-13.8,6.66,53.44,53.44,0,0,1-17.66,2.61A54.4,54.4,0,0,1,2168,4276Z" transform="translate(-350 -664.55)"/><path d="M2266.09,4277.17a32.54,32.54,0,0,1-12-13.7,43.7,43.7,0,0,1-4.15-19.11v-54.8a8.29,8.29,0,0,1,2.6-6.18,8.73,8.73,0,0,1,6.27-2.5,8.56,8.56,0,0,1,8.69,8.68v52.87q0,23.55,21.23,23.55a30.69,30.69,0,0,0,17.27-5,62.39,62.39,0,0,0,14.37-13.51v-57.89a8.26,8.26,0,0,1,2.61-6.18,8.71,8.71,0,0,1,6.27-2.5,8.54,8.54,0,0,1,8.68,8.68v82.79a8.73,8.73,0,0,1-2.5,6.27,8.29,8.29,0,0,1-6.18,2.6,8.89,8.89,0,0,1-8.88-8.87v-7.92a63.88,63.88,0,0,1-15.82,12.93q-8.49,4.83-20.07,4.83A33.4,33.4,0,0,1,2266.09,4277.17Z" transform="translate(-350 -664.55)"/><path d="M2371,4278.71a8.39,8.39,0,0,1-2.51-6.17v-82.79a8.74,8.74,0,0,1,2.51-6.27,8.22,8.22,0,0,1,6.18-2.6,8.88,8.88,0,0,1,8.87,8.87v8.3q13.52-18.14,30.3-18.14h1a8.12,8.12,0,0,1,6.08,2.51,8.59,8.59,0,0,1,2.41,6.17,7.8,7.8,0,0,1-2.51,6,9,9,0,0,1-6.37,2.31h-1a33,33,0,0,0-17,4.54,39.22,39.22,0,0,0-12.93,12.44v58.67a8.21,8.21,0,0,1-2.6,6.17,8.74,8.74,0,0,1-6.27,2.51A8.4,8.4,0,0,1,2371,4278.71Z" transform="translate(-350 -664.55)"/><path d="M2446.71,4268.78q-13.22-13.41-13.21-37.73a63,63,0,0,1,5-25.28,43,43,0,0,1,15.44-18.72q10.43-7.14,25.67-7.14,14.28,0,24.7,6.66a43.12,43.12,0,0,1,15.82,17.75,54.61,54.61,0,0,1,5.4,24.22,8.41,8.41,0,0,1-8.87,8.68h-65.42q1.55,13.51,10,21t23.74,7.52a58,58,0,0,0,14.18-1.54,58.8,58.8,0,0,0,11.87-4.44,8.05,8.05,0,0,1,8.88,1.35,7,7,0,0,1,2.31,5.41q0,4.24-5,7.14a69.6,69.6,0,0,1-14.86,6.36q-7.33,2.13-18.91,2.13Q2459.93,4282.19,2446.71,4268.78Zm61.47-45.84q-.58-9.45-4.92-15.82a26.72,26.72,0,0,0-10.71-9.36,29.45,29.45,0,0,0-25.86,0,26,26,0,0,0-10.62,9.36q-4.25,6.38-4.82,15.82Z" transform="translate(-350 -664.55)"/><path d="M2605.92,4276.69a11.71,11.71,0,0,1-3.57-8.59V4153.47a8.7,8.7,0,0,1,2.51-6.27,8.21,8.21,0,0,1,6.17-2.6,8.89,8.89,0,0,1,8.88,8.87V4262.7H2683a8.89,8.89,0,0,1,8.88,8.87,8.23,8.23,0,0,1-2.61,6.18,8.72,8.72,0,0,1-6.27,2.51H2614.5A11.7,11.7,0,0,1,2605.92,4276.69Z" transform="translate(-350 -664.55)"/><path d="M2727.39,4275.82a43.31,43.31,0,0,1-17.27-18q-6.07-11.69-6.08-26.73t6.08-26.73a43.25,43.25,0,0,1,17.27-18q11.19-6.37,26.06-6.37,14.65,0,25.85,6.37a43.91,43.91,0,0,1,17.37,18q6.18,11.68,6.18,26.73t-6.18,26.73a44,44,0,0,1-17.37,18q-11.19,6.36-25.85,6.37Q2738.59,4282.19,2727.39,4275.82Zm41.2-13.32a29.48,29.48,0,0,0,12-11.57q4.72-7.92,4.73-20.07,0-12-4.73-19.88a28.86,28.86,0,0,0-12-11.48,33.78,33.78,0,0,0-15.14-3.57,34.26,34.26,0,0,0-15.35,3.57,28.22,28.22,0,0,0-11.86,11.48q-4.63,7.92-4.64,19.88,0,12.15,4.64,20.07a28.81,28.81,0,0,0,11.86,11.57,33.45,33.45,0,0,0,15.35,3.67A33,33,0,0,0,2768.59,4262.5Z" transform="translate(-350 -664.55)"/><path d="M2850.7,4323.68a74,74,0,0,1-18.72-7.14,7.35,7.35,0,0,1-3.47-6.76,7.9,7.9,0,0,1,2.22-5.5,7.16,7.16,0,0,1,5.5-2.41,9.52,9.52,0,0,1,3.47.77,70.19,70.19,0,0,0,31.84,7.34q29.53,0,29.53-31.46v-12.93q-13.71,14.67-33,14.67a46.62,46.62,0,0,1-22.1-5.69,46.06,46.06,0,0,1-17.65-17q-6.95-11.28-7-27.5t7-27.5a46.1,46.1,0,0,1,17.65-17,46.62,46.62,0,0,1,22.1-5.69q19.29,0,33,14.67v-4.83a8.7,8.7,0,0,1,2.51-6.27,8.21,8.21,0,0,1,6.17-2.6,8.89,8.89,0,0,1,8.88,8.87V4276q0,24.32-11.77,37.44t-33.58,13.12A91.36,91.36,0,0,1,2850.7,4323.68Zm37.05-63.3a57.47,57.47,0,0,0,13.32-10.42v-39.75a57.74,57.74,0,0,0-13.32-10.42,32.34,32.34,0,0,0-16-3.86q-14.47,0-23.64,8.78t-9.17,25.37q0,16.6,9.17,25.38t23.64,8.78A32.34,32.34,0,0,0,2887.75,4260.38Z" transform="translate(-350 -664.55)"/><path d="M2950.47,4158.88a9.48,9.48,0,0,1-2.89-6.95v-.77a9.87,9.87,0,0,1,9.84-9.84h1.16a9.88,9.88,0,0,1,9.84,9.84v.77a9.88,9.88,0,0,1-9.84,9.84h-1.16A9.48,9.48,0,0,1,2950.47,4158.88Zm1.16,119.83a8.36,8.36,0,0,1-2.51-6.17v-82.79a8.7,8.7,0,0,1,2.51-6.27,8.21,8.21,0,0,1,6.17-2.6,8.57,8.57,0,0,1,8.88,8.87v82.79a8.25,8.25,0,0,1-2.6,6.17,8.74,8.74,0,0,1-6.28,2.51A8.39,8.39,0,0,1,2951.63,4278.71Z" transform="translate(-350 -664.55)"/><path d="M2999.68,4278.71a8.36,8.36,0,0,1-2.51-6.17v-82.79a8.7,8.7,0,0,1,2.51-6.27,8.21,8.21,0,0,1,6.17-2.6,8.89,8.89,0,0,1,8.88,8.87v7.91a64.33,64.33,0,0,1,15.82-12.93q8.49-4.81,20.07-4.82a33.32,33.32,0,0,1,18.43,5,32.63,32.63,0,0,1,12,13.7,43.83,43.83,0,0,1,4.15,19.1v54.81a8.22,8.22,0,0,1-2.61,6.17,8.74,8.74,0,0,1-6.27,2.51,8.56,8.56,0,0,1-8.68-8.68v-52.88q0-23.53-21.23-23.54a30.65,30.65,0,0,0-17.27,5,62.22,62.22,0,0,0-14.38,13.51v57.89a8.22,8.22,0,0,1-2.61,6.17,8.72,8.72,0,0,1-6.27,2.51A8.39,8.39,0,0,1,2999.68,4278.71Z" transform="translate(-350 -664.55)"/></g></svg>